<svg width="0" height="0" class="hidden">
  <symbol fill="none" xmlns="http://www.w3.org/2000/svg" viewBox="0 0 20 20" id="eye">
    <path d="M0.833252 9.99998C0.833252 9.99998 4.16659 3.33331 9.99992 3.33331C15.8333 3.33331 19.1666 9.99998 19.1666 9.99998C19.1666 9.99998 15.8333 16.6666 9.99992 16.6666C4.16659 16.6666 0.833252 9.99998 0.833252 9.99998Z" stroke="#1d1e21" stroke-width="1.3" stroke-linecap="round" stroke-linejoin="round"></path>
    <path d="M10 12.5C11.3807 12.5 12.5 11.3807 12.5 10C12.5 8.61929 11.3807 7.5 10 7.5C8.61929 7.5 7.5 8.61929 7.5 10C7.5 11.3807 8.61929 12.5 10 12.5Z" stroke="#1d1e21" stroke-width="1.3" stroke-linecap="round" stroke-linejoin="round"></path>
  </symbol>
  <symbol fill="none" xmlns="http://www.w3.org/2000/svg" viewBox="0 0 20 20" id="eye-off">
    <g clip-path="url(#clip0_18803_172)">
      <path d="M14.9499 14.95C13.5254 16.0358 11.7908 16.6374 9.99992 16.6667C4.16659 16.6667 0.833252 10 0.833252 10C1.86983 8.06825 3.30753 6.38051 5.04992 5.05M8.24992 3.53333C8.82353 3.39907 9.41081 3.33195 9.99992 3.33333C15.8333 3.33333 19.1666 10 19.1666 10C18.6607 10.9463 18.0575 11.8373 17.3666 12.6583M11.7666 11.7667C11.5377 12.0123 11.2617 12.2093 10.955 12.3459C10.6484 12.4826 10.3173 12.556 9.98166 12.562C9.64599 12.5679 9.31256 12.5061 9.00126 12.3804C8.68997 12.2547 8.40719 12.0675 8.16979 11.8301C7.9324 11.5927 7.74525 11.31 7.61951 10.9987C7.49377 10.6874 7.43202 10.3539 7.43795 10.0183C7.44387 9.68258 7.51734 9.35154 7.65398 9.04487C7.79062 8.73821 7.98763 8.46221 8.23325 8.23333" stroke="#1d1e21" stroke-width="1.3" stroke-linecap="round" stroke-linejoin="round"></path>
      <path d="M0.833252 0.833313L19.1666 19.1666" stroke="#1d1e21" stroke-width="1.3" stroke-linecap="round" stroke-linejoin="round"></path>
    </g>
    <defs>
      <clipPath id="clip0_18803_172">
        <rect width="20" height="20" fill="white"></rect>
      </clipPath>
    </defs>
  </symbol>
  <symbol xmlns="http://www.w3.org/2000/svg" width="16" height="16" viewBox="0 0 16 16" id="logout" fill="none">
  <path fill-rule="evenodd" clip-rule="evenodd" d="M4 1.33331C3.46957 1.33331 2.96086 1.54403 2.58579 1.9191C2.21071 2.29417 2 2.80288 2 3.33331V12.6666C2 13.1971 2.21071 13.7058 2.58579 14.0809C2.96086 14.4559 3.46957 14.6666 4 14.6666H8C8.53043 14.6666 9.03914 14.4559 9.41421 14.0809C9.78929 13.7058 10 13.1971 10 12.6666V3.33331C10 2.80288 9.78929 2.29417 9.41421 1.9191C9.03914 1.54403 8.53043 1.33331 8 1.33331H4ZM10.862 4.86198C10.987 4.737 11.1566 4.66679 11.3333 4.66679C11.5101 4.66679 11.6796 4.737 11.8047 4.86198L14.4713 7.52865C14.5963 7.65366 14.6665 7.8232 14.6665 7.99998C14.6665 8.17676 14.5963 8.34629 14.4713 8.47131L11.8047 11.138C11.6789 11.2594 11.5105 11.3266 11.3357 11.3251C11.1609 11.3236 10.9937 11.2535 10.8701 11.1299C10.7465 11.0063 10.6764 10.839 10.6749 10.6642C10.6734 10.4894 10.7406 10.321 10.862 10.1953L12.3907 8.66665H6.66667C6.48986 8.66665 6.32029 8.59641 6.19526 8.47138C6.07024 8.34636 6 8.17679 6 7.99998C6 7.82317 6.07024 7.6536 6.19526 7.52857C6.32029 7.40355 6.48986 7.33331 6.66667 7.33331H12.3907L10.862 5.80465C10.737 5.67963 10.6668 5.51009 10.6668 5.33331C10.6668 5.15654 10.737 4.987 10.862 4.86198Z" fill="white"/>
</symbol>
<symbol xmlns="http://www.w3.org/2000/svg" width="16" height="16" viewBox="0 0 16 16" id="dashboard">
  <path d="M2.66667 8.66667H6.66667C7.03333 8.66667 7.33333 8.36667 7.33333 8V2.66667C7.33333 2.3 7.03333 2 6.66667 2H2.66667C2.3 2 2 2.3 2 2.66667V8C2 8.36667 2.3 8.66667 2.66667 8.66667ZM2.66667 14H6.66667C7.03333 14 7.33333 13.7 7.33333 13.3333V10.6667C7.33333 10.3 7.03333 10 6.66667 10H2.66667C2.3 10 2 10.3 2 10.6667V13.3333C2 13.7 2.3 14 2.66667 14ZM9.33333 14H13.3333C13.7 14 14 13.7 14 13.3333V8C14 7.63333 13.7 7.33333 13.3333 7.33333H9.33333C8.96667 7.33333 8.66667 7.63333 8.66667 8V13.3333C8.66667 13.7 8.96667 14 9.33333 14ZM8.66667 2.66667V5.33333C8.66667 5.7 8.96667 6 9.33333 6H13.3333C13.7 6 14 5.7 14 5.33333V2.66667C14 2.3 13.7 2 13.3333 2H9.33333C8.96667 2 8.66667 2.3 8.66667 2.66667Z"/>
</symbol>
<symbol xmlns="http://www.w3.org/2000/svg" width="16" height="16" viewBox="0 0 16 16" id="orders">
  <path d="M4.6665 12C3.93317 12 3.33984 12.6 3.33984 13.3334C3.33984 14.0667 3.93317 14.6667 4.6665 14.6667C5.39984 14.6667 5.99984 14.0667 5.99984 13.3334C5.99984 12.6 5.39984 12 4.6665 12ZM0.666504 2.00004C0.666504 2.36671 0.966504 2.66671 1.33317 2.66671H1.99984L4.39984 7.72671L3.49984 9.35337C3.01317 10.2467 3.65317 11.3334 4.6665 11.3334H11.9998C12.3665 11.3334 12.6665 11.0334 12.6665 10.6667C12.6665 10.3 12.3665 10 11.9998 10H4.6665L5.39984 8.66671H10.3665C10.8665 8.66671 11.3065 8.39337 11.5332 7.98004L13.9198 3.65337C13.976 3.55232 14.0048 3.43836 14.0035 3.32274C14.0021 3.20713 13.9705 3.09389 13.9119 2.99422C13.8533 2.89454 13.7697 2.8119 13.6694 2.75445C13.5691 2.69701 13.4555 2.66677 13.3398 2.66671H3.47317L3.0265 1.71337C2.97292 1.59958 2.88804 1.5034 2.78178 1.4361C2.67552 1.36881 2.55228 1.33317 2.4265 1.33337H1.33317C0.966504 1.33337 0.666504 1.63337 0.666504 2.00004ZM11.3332 12C10.5998 12 10.0065 12.6 10.0065 13.3334C10.0065 14.0667 10.5998 14.6667 11.3332 14.6667C12.0665 14.6667 12.6665 14.0667 12.6665 13.3334C12.6665 12.6 12.0665 12 11.3332 12Z"/>
</symbol>
<symbol xmlns="http://www.w3.org/2000/svg" width="16" height="16" viewBox="0 0 16 16" id="products">
  <g clip-path="url(#clip0_0_93)">
    <path d="M9.99997 6.42071V2.66671H10.6666C10.8434 2.66671 11.013 2.59647 11.138 2.47145C11.2631 2.34642 11.3333 2.17685 11.3333 2.00004C11.3333 1.82323 11.2631 1.65366 11.138 1.52864C11.013 1.40361 10.8434 1.33337 10.6666 1.33337H5.3333C5.15649 1.33337 4.98692 1.40361 4.8619 1.52864C4.73687 1.65366 4.66663 1.82323 4.66663 2.00004C4.66663 2.17685 4.73687 2.34642 4.8619 2.47145C4.98692 2.59647 5.15649 2.66671 5.3333 2.66671H5.99997V6.42071L2.5153 11.5414C1.61197 12.8694 2.5633 14.6667 4.16863 14.6667H11.8306C13.4373 14.6667 14.388 12.8694 13.484 11.5414L9.99997 6.42137V6.42071Z"/>
  </g>
  <defs>
    <clipPath id="clip0_0_93">
      <rect width="16" height="16" fill="white"/>
    </clipPath>
  </defs>
</symbol>
<symbol xmlns="http://www.w3.org/2000/svg" width="16" height="16" viewBox="0 0 16 16" id="customers">
  <path d="M10.6667 9.33335H8.66667V11.3334H7.33333V9.33335H5.33333V8.00002H7.33333V6.00002H8.66667V8.00002H10.6667M14 3.33335H12.2333L13 1.23335L11.4333 0.666687L10.46 3.33335H2V4.66669L3.33333 8.66669L2 12.6667V14H14V12.6667L12.6667 8.66669L14 4.66669V3.33335Z"/>
</symbol>
<symbol xmlns="http://www.w3.org/2000/svg" width="16" height="16" viewBox="0 0 16 16" id="suppliers">
  <path d="M10.6668 11.3333V12.6667H1.3335V11.3333C1.3335 11.3333 1.3335 8.66666 6.00016 8.66666C10.6668 8.66666 10.6668 11.3333 10.6668 11.3333ZM8.3335 4.99999C8.3335 4.53851 8.19665 4.08738 7.94026 3.70366C7.68387 3.31995 7.31945 3.02088 6.89309 2.84428C6.46673 2.66767 5.99757 2.62146 5.54495 2.7115C5.09233 2.80153 4.67657 3.02376 4.35025 3.35008C4.02392 3.6764 3.8017 4.09216 3.71166 4.54478C3.62163 4.99741 3.66784 5.46656 3.84444 5.89292C4.02105 6.31928 4.32012 6.6837 4.70383 6.94009C5.08755 7.19648 5.53867 7.33333 6.00016 7.33333C6.619 7.33333 7.21249 7.0875 7.65008 6.64991C8.08766 6.21233 8.3335 5.61883 8.3335 4.99999ZM10.6268 8.66666C11.0367 8.98383 11.372 9.38695 11.6093 9.84767C11.8465 10.3084 11.98 10.8155 12.0002 11.3333V12.6667H14.6668V11.3333C14.6668 11.3333 14.6668 8.91333 10.6268 8.66666ZM10.0002 2.66666C9.54129 2.66411 9.09251 2.8013 8.7135 3.05999C9.11846 3.62582 9.3362 4.30419 9.3362 4.99999C9.3362 5.6958 9.11846 6.37417 8.7135 6.94C9.09251 7.19869 9.54129 7.33588 10.0002 7.33333C10.619 7.33333 11.2125 7.0875 11.6501 6.64991C12.0877 6.21233 12.3335 5.61883 12.3335 4.99999C12.3335 4.38116 12.0877 3.78766 11.6501 3.35008C11.2125 2.91249 10.619 2.66666 10.0002 2.66666Z"/>
</symbol>
<symbol xmlns="http://www.w3.org/2000/svg" width="20" height="20" viewBox="0 0 20 20" fill="none" id="all-products">
  <g clip-path="url(#clip0_0_115)">
    <path d="M12.8573 10.7143C16.4077 10.7143 19.2859 9.4351 19.2859 7.85714C19.2859 6.27919 16.4077 5 12.8573 5C9.30688 5 6.42871 6.27919 6.42871 7.85714C6.42871 9.4351 9.30688 10.7143 12.8573 10.7143Z" stroke="#1D1E21" stroke-width="1.5" stroke-linecap="round" stroke-linejoin="round"/>
    <path d="M6.42871 7.85718V16.4286C6.42871 18 9.28585 19.2857 12.8573 19.2857C16.4287 19.2857 19.2859 18 19.2859 16.4286V7.85718" stroke="#1D1E21" stroke-width="1.5" stroke-linecap="round" stroke-linejoin="round"/>
    <path d="M19.2858 12.1429C19.2858 13.7143 16.4286 15 12.8572 15C9.28578 15 6.42864 13.7143 6.42864 12.1429M12.7144 2.14289C11.0451 1.11271 9.10197 0.614486 7.14293 0.71432C3.58578 0.71432 0.714355 2.00003 0.714355 3.57146C0.714355 4.41432 1.54293 5.17146 2.85721 5.71432" stroke="#1D1E21" stroke-width="1.5" stroke-linecap="round" stroke-linejoin="round"/>
    <path d="M2.85721 14.2857C1.54293 13.7428 0.714355 12.9857 0.714355 12.1428V3.57141" stroke="#1D1E21" stroke-width="1.5" stroke-linecap="round" stroke-linejoin="round"/>
    <path d="M2.85721 10C1.54293 9.45718 0.714355 8.70003 0.714355 7.85718" stroke="#1D1E21" stroke-width="1.5" stroke-linecap="round" stroke-linejoin="round"/>
  </g>
  <defs>
    <clipPath id="clip0_0_115">
      <rect width="20" height="20" fill="white"/>
    </clipPath>
  </defs>
</symbol>
<svg xmlns="http://www.w3.org/2000/svg" width="20" height="20" viewBox="0 0 20 20" fill="none" id="all-users">
  <path d="M17.5 16.6666C17.5 15.215 16.1083 13.9808 14.1667 13.5225M12.5 16.6666C12.5 14.825 10.2617 13.3333 7.5 13.3333C4.73833 13.3333 2.5 14.825 2.5 16.6666M12.5 10.8333C13.3841 10.8333 14.2319 10.4821 14.857 9.85698C15.4821 9.23186 15.8333 8.38401 15.8333 7.49996C15.8333 6.6159 15.4821 5.76806 14.857 5.14294C14.2319 4.51782 13.3841 4.16663 12.5 4.16663M7.5 10.8333C6.61594 10.8333 5.7681 10.4821 5.14298 9.85698C4.51786 9.23186 4.16667 8.38401 4.16667 7.49996C4.16667 6.6159 4.51786 5.76806 5.14298 5.14294C5.7681 4.51782 6.61594 4.16663 7.5 4.16663C8.38405 4.16663 9.2319 4.51782 9.85702 5.14294C10.4821 5.76806 10.8333 6.6159 10.8333 7.49996C10.8333 8.38401 10.4821 9.23186 9.85702 9.85698C9.2319 10.4821 8.38405 10.8333 7.5 10.8333Z" stroke="#1D1E21" stroke-width="1.5" stroke-linecap="round" stroke-linejoin="round"/>
</svg>
</svg>